<?xml version="1.0" encoding="utf-8"?>
<!-- Generator: Adobe Illustrator 24.0.0, SVG Export Plug-In . SVG Version: 6.00 Build 0)  -->
<svg version="1.1" id="Layer_1" xmlns="http://www.w3.org/2000/svg" xmlns:xlink="http://www.w3.org/1999/xlink" x="0px" y="0px"
	 viewBox="0 0 64 64" style="enable-background:new 0 0 64 64;" xml:space="preserve">
<style type="text/css">
	.st0{fill:url(#SVGID_1_);}
	.st1{fill:url(#SVGID_2_);}
	.st2{opacity:0.48;fill:#FFFFFF;}
</style>
<linearGradient id="SVGID_1_" gradientUnits="userSpaceOnUse" x1="32" y1="54.78" x2="32" y2="4.78" gradientTransform="matrix(1 0 0 -1 0 63.78)">
	<stop  offset="0" style="stop-color:#50DFF4"/>
	<stop  offset="0.281" style="stop-color:#4AD8F1"/>
	<stop  offset="0.677" style="stop-color:#3AC6E9"/>
	<stop  offset="1" style="stop-color:#29B2E1"/>
</linearGradient>
<path class="st0" d="M52,9H12c-2.8,0-5,2.2-5,5v30v12.3C7,57.8,8.2,59,9.6,59h0c0.8,0,1.6-0.4,2.1-1.1l5-6.9c0.9-1.3,2.4-2,4-2H52
	c2.8,0,5-2.2,5-5V14C57,11.2,54.8,9,52,9z"/>
<linearGradient id="SVGID_2_" gradientUnits="userSpaceOnUse" x1="14.5" y1="39.78" x2="14.5" y2="54.78" gradientTransform="matrix(1 0 0 -1 0 63.78)">
	<stop  offset="0" style="stop-color:#65DDF3"/>
	<stop  offset="5.300000e-02" style="stop-color:#65DEF3"/>
	<stop  offset="1" style="stop-color:#6AE4F6"/>
</linearGradient>
<path class="st1" d="M15.5,24H7V14c0-2.8,2.2-5,5-5h7.5c1.4,0,2.5,1.1,2.5,2.5l0,0c0,1.4-1.1,2.5-2.5,2.5h-5c-1.4,0-2.5,1.1-2.5,2.5
	l0,0c0,1.4,1.1,2.5,2.5,2.5h1c1.4,0,2.5,1.1,2.5,2.5l0,0C18,22.9,16.9,24,15.5,24z"/>
<path class="st2" d="M31.9,22.4H20.1c-2,0-3.6-1.3-3.6-3s1.6-3,3.6-3h11.8c2,0,3.6,1.3,3.6,3S34,22.4,31.9,22.4z M43.9,32.5H20.1
	c-2,0-3.6-1.3-3.6-3s1.6-3,3.6-3h23.8c2,0,3.6,1.3,3.6,3S45.9,32.5,43.9,32.5z M43.9,42.6H32.1c-2,0-3.6-1.3-3.6-3s1.6-3,3.6-3h11.8
	c2,0,3.6,1.3,3.6,3S45.9,42.6,43.9,42.6z M20.1,36.5c-2,0-3.6,1.4-3.6,3s1.6,3,3.6,3s3.6-1.4,3.6-3S22.1,36.5,20.1,36.5z M43.9,16.4
	c-2,0-3.6,1.4-3.6,3c0,1.7,1.6,3,3.6,3s3.6-1.4,3.6-3C47.5,17.7,45.9,16.4,43.9,16.4z"/>
</svg>
